<svg width="64" height="45" viewBox="0 0 64 45" fill="none" xmlns="http://www.w3.org/2000/svg">
<path d="M5.62978 37.6064C5.87525 37.8799 6.006 38.2225 5.99915 38.5741C6.01168 38.8034 5.96674 39.0323 5.86766 39.2439C5.76858 39.4555 5.6179 39.6443 5.42679 39.7964C4.94993 40.1206 4.35915 40.2791 3.76294 40.2427H0.837891V34.1103H3.70304C4.2686 34.0765 4.82967 34.2205 5.29035 34.5178C5.47538 34.6572 5.6219 34.8334 5.71834 35.0325C5.81478 35.2316 5.85851 35.4482 5.84608 35.6651C5.86289 36.0034 5.74487 36.336 5.51331 36.6028C5.29099 36.8465 4.98377 37.0154 4.64145 37.0822C5.02951 37.1459 5.37978 37.3317 5.62978 37.6064ZM2.19892 36.6807H3.42351C3.70183 36.6993 3.97825 36.6269 4.20219 36.477C4.29414 36.402 4.36568 36.3089 4.41126 36.205C4.45685 36.1011 4.47527 35.9892 4.46508 35.8778C4.47372 35.7669 4.45493 35.6556 4.41004 35.552C4.36516 35.4484 4.29531 35.3551 4.20552 35.2787C3.97488 35.1245 3.68987 35.0511 3.40355 35.072H2.19892V36.6807ZM4.32199 39.0324C4.42028 38.9556 4.49754 38.8595 4.54775 38.7514C4.59797 38.6433 4.61979 38.5262 4.6115 38.4093C4.619 38.291 4.59619 38.1728 4.54483 38.0637C4.49348 37.9546 4.41496 37.8576 4.31534 37.7802C4.07575 37.6203 3.78108 37.5418 3.48341 37.5585H2.19892V39.2451H3.50005C3.79292 39.2603 4.08281 39.1853 4.32199 39.0324Z" fill="#8E8F99"/>
<path d="M11.4868 40.2427L9.89285 37.8461H9.29386V40.2427H7.92285V34.1103H10.5185C11.1727 34.0692 11.8195 34.2558 12.3254 34.6316C12.6882 34.9644 12.9071 35.403 12.9425 35.8682C12.9779 36.3335 12.8275 36.7948 12.5184 37.169C12.1982 37.4993 11.7607 37.7195 11.2805 37.7922L12.9776 40.2427H11.4868ZM9.29386 37.0103H10.4153C11.194 37.0103 11.5833 36.7007 11.5833 36.0816C11.5913 35.9551 11.5699 35.8286 11.5207 35.71C11.4714 35.5914 11.3953 35.4833 11.2971 35.3925C11.0511 35.2083 10.7342 35.1189 10.4153 35.1439H9.28055L9.29386 37.0103Z" fill="#8E8F99"/>
<path d="M18.9802 39.0086H16.2482L15.7657 40.2428H14.3281L16.8372 34.1793H18.3912L20.8903 40.2428H19.4528L18.9802 39.0086ZM18.6142 38.0799L17.6159 35.4915L16.6176 38.0799H18.6142Z" fill="#8E8F99"/>
<path d="M28.361 40.2428H27L23.9485 36.0726V40.2428H22.5908V34.1104H23.9485L27 38.3045V34.1104H28.361V40.2428Z" fill="#8E8F99"/>
<path d="M36.1278 38.7749C35.8464 39.2378 35.4176 39.6145 34.8965 39.8563C34.3041 40.1257 33.6466 40.2585 32.9831 40.2428H30.5605V34.1104H32.9831C33.6455 34.0948 34.3021 34.2244 34.8965 34.4879C35.4175 34.7242 35.8468 35.0971 36.1278 35.5574C36.4079 36.0561 36.5539 36.6072 36.5539 37.1661C36.5539 37.725 36.4079 38.2761 36.1278 38.7749ZM34.5704 38.6281C34.9589 38.2207 35.1724 37.7015 35.1724 37.1646C35.1724 36.6277 34.9589 36.1086 34.5704 35.7012C34.1009 35.3322 33.4887 35.1448 32.8666 35.1799H31.9216V39.1493H32.8666C33.4887 39.1844 34.1009 38.9971 34.5704 38.6281Z" fill="#8E8F99"/>
<path d="M19.832 0.00012207C19.832 0.00012207 37.399 5.97076 37.0263 14.6107V29.2242C37.0263 29.2242 19.4726 23.2506 19.8387 14.6107L19.832 0.00012207Z" fill="#8E8F99"/>
<path d="M52.6768 25.8028C55.9944 23.7473 59.832 22.4742 63.8379 22.1V17.5254C59.2221 19.1269 55.3065 22.0309 52.6768 25.8028Z" fill="#8E8F99"/>
<path d="M50.6832 27.1812C53.3987 22.2587 58.1063 18.4602 63.8376 16.567V3.3855C63.8376 3.3855 38.82 11.8906 39.3491 24.1943V45.0002C39.3491 45.0002 40.4639 44.6197 42.2176 43.9067C42.2176 43.2417 42.2176 42.5706 42.2974 41.8965C42.8152 36.1845 45.8315 30.8915 50.6832 27.1812Z" fill="#8E8F99"/>
<path d="M48.3043 34.9103C48.4358 33.4674 48.729 32.0401 49.1795 30.6503C46.1585 33.8545 44.3291 37.8305 43.9484 42.0193C43.9118 42.4148 43.8918 42.8102 43.8818 43.2177C45.3028 42.6035 46.9566 41.8366 48.6937 40.9349C48.2504 38.9531 48.1193 36.925 48.3043 34.9103Z" fill="#8E8F99"/>
<path d="M49.2996 34.9853C49.1331 36.808 49.2371 38.6426 49.6091 40.4406C56.4442 36.7588 64.1245 31.0697 63.8284 24.1944V23.5952C58.9449 24.0871 54.376 26.009 50.8237 29.0655C49.992 30.9597 49.4783 32.9548 49.2996 34.9853Z" fill="#8E8F99"/>
</svg>
