<svg width="40" height="52" viewBox="0 0 40 52" fill="none" xmlns="http://www.w3.org/2000/svg">
<path fill-rule="evenodd" clip-rule="evenodd" d="M17.1135 2.93452H16.9769C16.7669 2.92181 16.557 2.91672 16.347 2.91163H16.347H16.3268H15.8917C15.4945 2.91163 15.0897 2.92181 14.6875 2.94215C14.6572 2.93994 14.6267 2.93994 14.5964 2.94215C10.9521 3.14863 7.38159 4.05951 4.08036 5.62492L3.64778 5.83344V27.9746L4.65967 27.6313C5.54761 27.3261 6.49372 27.0515 7.47273 26.7972C10.1192 26.1178 12.8366 25.7567 15.5678 25.7216V28.6306C15.2061 28.6332 14.8545 28.6434 14.5028 28.6612H14.4193C12.3174 28.7765 10.2315 29.0967 8.19117 29.6173C5.60704 30.2643 3.11421 31.2357 0.771484 32.5086V4.11189C3.20457 2.69275 5.82521 1.62687 8.55545 0.945963C10.9526 0.327052 13.4168 0.00930695 15.8917 0H16.3192C16.8302 0.0127146 17.3285 0.0356008 17.7965 0.0712015C19.0296 0.157776 20.2527 0.352628 21.452 0.653528V3.51685C20.2873 3.24551 19.103 3.06695 17.9104 2.98284C17.8862 2.98079 17.862 2.97872 17.8377 2.97666C17.591 2.95561 17.3439 2.93452 17.1135 2.93452ZM22.1527 5.86163C22.7876 5.90994 23.4453 5.93283 24.1107 5.93283C26.7124 5.92332 29.303 5.59108 31.8238 4.94364C34.4067 4.29421 36.8985 3.32202 39.2409 2.0498V29.9405C36.8065 31.3587 34.1852 32.4246 31.4545 33.1064C29.057 33.7229 26.5929 34.0398 24.1182 34.0498C22.2432 34.0649 20.3736 33.8445 18.5529 33.3937V5.32253C18.9829 5.4217 19.4256 5.51325 19.8759 5.58954C20.6146 5.71414 21.3937 5.80568 22.1527 5.86163ZM36.3469 6.07778L35.335 6.41853C34.4041 6.7313 33.4656 7.01102 32.522 7.26023C29.7748 7.9662 26.9513 8.32834 24.1157 8.33842C23.4555 8.33842 22.8483 8.32062 22.2614 8.28248L21.4545 8.22908V28.3181V31.0059L22.1476 31.067C22.7901 31.1229 23.4529 31.1509 24.1208 31.1509C26.3543 31.1414 28.578 30.8536 30.7411 30.2939C32.5222 29.8472 34.2551 29.2245 35.9144 28.4351L36.3469 28.2265V6.07778Z" fill="#8E8F99"/>
<path d="M2.73726 42.2121C2.59178 42.0613 2.41641 41.9428 2.22248 41.8644C2.02856 41.786 1.82042 41.7494 1.61153 41.757C1.38892 41.754 1.16793 41.7955 0.961389 41.879C0.772023 41.9544 0.599889 42.0678 0.455444 42.2121C0.312573 42.3569 0.201414 42.5302 0.12911 42.7207C0.0498013 42.9204 0.0102645 43.1338 0.0127426 43.3488V47.1428C0.0036949 47.4102 0.0547102 47.6762 0.161996 47.921C0.251555 48.1154 0.380847 48.2887 0.541455 48.4296C0.693075 48.5572 0.8711 48.6493 1.06258 48.6991C1.24706 48.751 1.43768 48.7775 1.62924 48.7779C1.84053 48.7801 2.04965 48.7349 2.24143 48.6457C2.43107 48.5627 2.60289 48.4436 2.74737 48.2948C2.88826 48.1474 3.00064 47.9749 3.07877 47.7862C3.15985 47.5949 3.20117 47.3889 3.2002 47.181V46.7563H2.20854V47.0945C2.21149 47.21 2.19172 47.325 2.15036 47.4327C2.11807 47.5135 2.06889 47.5863 2.00617 47.6463C1.94474 47.696 1.87428 47.7331 1.79873 47.7557C1.73176 47.778 1.66182 47.79 1.59129 47.7913C1.50275 47.8016 1.41308 47.7882 1.33134 47.7525C1.24961 47.7168 1.17871 47.66 1.12582 47.5879C1.03234 47.4354 0.986517 47.2582 0.994276 47.0793V43.5421C0.988124 43.3459 1.02981 43.1513 1.1157 42.975C1.16718 42.8949 1.24002 42.831 1.3259 42.7906C1.41178 42.7501 1.50725 42.7347 1.60141 42.7462C1.68689 42.7431 1.77182 42.761 1.84893 42.7982C1.92603 42.8354 1.99301 42.8908 2.04411 42.9598C2.15508 43.1054 2.2131 43.2849 2.20854 43.4683V43.7964H3.19008V43.4099C3.19207 43.1829 3.15085 42.9576 3.06865 42.7462C2.99539 42.5474 2.88264 42.3657 2.73726 42.2121Z" fill="#8E8F99"/>
<path d="M8.62867 42.1691C8.31247 41.9021 7.91337 41.7546 7.50042 41.7521C7.29843 41.7529 7.09813 41.7891 6.90846 41.8589C6.71589 41.9279 6.53816 42.0332 6.38481 42.1691C6.22052 42.3168 6.08943 42.498 6.00029 42.7006C5.90039 42.9323 5.85121 43.183 5.8561 43.4355V47.0744C5.84926 47.3304 5.89848 47.5847 6.00029 47.8195C6.09003 48.0151 6.22127 48.1887 6.38481 48.328C6.53641 48.4688 6.71444 48.5777 6.90846 48.6485C7.09813 48.7183 7.29843 48.7544 7.50042 48.7553C7.70244 48.7549 7.90282 48.7187 8.09237 48.6485C8.28971 48.5767 8.4717 48.468 8.62867 48.328C8.78685 48.1861 8.9143 48.013 9.00307 47.8195C9.10488 47.5847 9.15411 47.3304 9.14727 47.0744V43.4355C9.15215 43.183 9.10297 42.9323 9.00307 42.7006C8.91481 42.5001 8.78751 42.3194 8.62867 42.1691ZM8.16573 47.0744C8.17409 47.1714 8.1607 47.269 8.12655 47.3601C8.09241 47.4512 8.03837 47.5334 7.96842 47.6008C7.83743 47.7106 7.67226 47.7708 7.50168 47.7708C7.3311 47.7708 7.16593 47.7106 7.03495 47.6008C6.965 47.5334 6.91096 47.4512 6.87681 47.3601C6.84266 47.269 6.82927 47.1714 6.83763 47.0744V43.4355C6.82927 43.3385 6.84266 43.2409 6.87681 43.1498C6.91096 43.0587 6.965 42.9764 7.03495 42.9091C7.16593 42.7993 7.3311 42.7391 7.50168 42.7391C7.67226 42.7391 7.83743 42.7993 7.96842 42.9091C8.03837 42.9764 8.09241 43.0587 8.12655 43.1498C8.1607 43.2409 8.17409 43.3385 8.16573 43.4355V47.0744Z" fill="#8E8F99"/>
<path d="M16.367 48.6994V41.8107H15.4133L14.1611 45.4572H14.1434L12.8811 41.8107H11.9375V48.6994H12.9216V44.5087H12.9393L13.9031 47.4712H14.3939L15.3653 44.5087H15.383V48.6994H16.367Z" fill="#8E8F99"/>
<path d="M21.9577 42.2937C21.8062 42.1237 21.6149 41.9943 21.4011 41.9173C21.1708 41.8424 20.9298 41.8063 20.6878 41.8105H19.2256V48.6993H20.2071V46.0089H20.7131C21.0193 46.0228 21.324 45.958 21.5985 45.8207C21.8216 45.6968 22.0077 45.515 22.1373 45.2943C22.2508 45.1111 22.3274 44.9071 22.3624 44.6942C22.4011 44.435 22.4188 44.173 22.4156 43.911C22.4251 43.5802 22.3928 43.2495 22.3194 42.9269C22.254 42.6885 22.1295 42.4706 21.9577 42.2937ZM21.4517 44.3941C21.4475 44.5188 21.4164 44.6412 21.3607 44.7527C21.3046 44.8586 21.2158 44.9434 21.1077 44.9942C20.9623 45.0593 20.8037 45.0889 20.6448 45.0807H20.197V42.7387H20.7029C20.8553 42.7312 21.0072 42.7609 21.1456 42.8251C21.2471 42.8834 21.3277 42.9724 21.3759 43.0794C21.4295 43.2004 21.4587 43.331 21.4619 43.4634C21.4619 43.6084 21.4619 43.7609 21.4619 43.9211C21.4619 44.0813 21.472 44.2466 21.4619 44.3941H21.4517Z" fill="#8E8F99"/>
<path d="M26.6074 41.8107H25.803L24.2852 48.6994H25.2667L25.5551 47.2194H26.8933L27.1817 48.6994H28.1632L26.6074 41.8107ZM25.7018 46.2811L26.185 43.784H26.2027L26.6833 46.2811H25.7018Z" fill="#8E8F99"/>
<path d="M32.9496 45.9607H32.9319L31.4494 41.8107H30.5059V48.6994H31.4874V44.557H31.5076L33.0078 48.6994H33.9311V41.8107H32.9496V45.9607Z" fill="#8E8F99"/>
<path d="M38.9471 41.8107L38.1578 44.5494H38.1376L37.3483 41.8107H36.3086L37.6569 45.7878V48.6994H38.6385V45.7878L39.9868 41.8107H38.9471Z" fill="#8E8F99"/>
<path d="M0 50.6443H0.473058V51.9717H0.794333V50.6443H1.26486V50.3722H0V50.6443Z" fill="#8E8F99"/>
<path d="M3.9772 50.3722L3.35742 51.9717H3.69893L3.83048 51.608H4.46797L4.60458 51.9717H4.95368L4.31872 50.3722H3.9772ZM3.92661 51.3385L4.14417 50.746L4.36172 51.3385H3.92661Z" fill="#8E8F99"/>
<path d="M7.90842 51.3821H8.27776V51.5881C8.1699 51.6746 8.03625 51.722 7.8983 51.7229C7.83378 51.7265 7.76934 51.7145 7.71037 51.688C7.6514 51.6614 7.5996 51.6211 7.55932 51.5703C7.47451 51.4485 7.43266 51.3017 7.44042 51.1533C7.44042 50.7973 7.59473 50.6193 7.90083 50.6193C7.9814 50.6112 8.06217 50.6325 8.12853 50.6791C8.19488 50.7257 8.24243 50.7947 8.26258 50.8735L8.5788 50.8125C8.51049 50.4997 8.28535 50.3421 7.90083 50.3421C7.69517 50.3366 7.49518 50.4103 7.34176 50.5481C7.26118 50.6276 7.19883 50.7239 7.15907 50.8302C7.11931 50.9365 7.1031 51.0502 7.11156 51.1634C7.10224 51.3823 7.17541 51.5966 7.31646 51.7636C7.39483 51.8444 7.48969 51.9071 7.5945 51.9475C7.69931 51.9879 7.81159 52.0049 7.9236 51.9975C8.17386 52.0045 8.41701 51.9133 8.60156 51.7432V51.1126H7.90842V51.3821Z" fill="#8E8F99"/>
<path d="M11.9224 50.3722H11.5986V51.9717H12.7193V51.6996H11.9224V50.3722Z" fill="#8E8F99"/>
<path d="M15.3179 50.3722H14.9941V51.9717H15.3179V50.3722Z" fill="#8E8F99"/>
<path d="M18.6369 51.4402L17.9817 50.3722H17.668V51.9717H17.969V50.9265L18.6116 51.9717H18.9328V50.3722H18.6369V51.4402Z" fill="#8E8F99"/>
<path d="M21.6363 51.2673H22.4332V50.9952H21.6363V50.6443H22.4939V50.3722H21.3125V51.9717H22.5268V51.6996H21.6363V51.2673Z" fill="#8E8F99"/>
<path d="M28.9121 51.0028H28.2822V50.3722H27.9609V51.9717H28.2822V51.2724H28.9121V51.9717H29.2334V50.3722H28.9121V51.0028Z" fill="#8E8F99"/>
<path d="M31.9306 51.2673H32.73V50.9952H31.9306V50.6443H32.7908V50.3722H31.6094V51.9717H32.8211V51.6996H31.9306V51.2673Z" fill="#8E8F99"/>
<path d="M36.0235 51.2676C36.3018 51.2244 36.4434 51.0769 36.4434 50.8226C36.4515 50.7546 36.4412 50.6856 36.4136 50.623C36.386 50.5603 36.3421 50.5063 36.2866 50.4666C36.1417 50.3938 35.9801 50.3614 35.8186 50.3725H35.1406V51.972H35.4619V51.3032H35.5251C35.5936 51.299 35.6621 51.3112 35.725 51.3388C35.772 51.3678 35.8111 51.4079 35.8388 51.4558L36.1879 51.9644H36.5724L36.3777 51.6516C36.2916 51.4972 36.1702 51.3656 36.0235 51.2676ZM35.6997 51.0464H35.4619V50.6446H35.7149C35.8251 50.6357 35.936 50.6486 36.0412 50.6827C36.0646 50.7034 36.0831 50.7291 36.0952 50.7579C36.1074 50.7867 36.113 50.8179 36.1115 50.8492C36.11 50.8804 36.1016 50.911 36.0868 50.9385C36.072 50.966 36.0512 50.9899 36.026 51.0082C35.9204 51.0406 35.8099 51.0535 35.6997 51.0464Z" fill="#8E8F99"/>
<path d="M39.1099 51.2673H39.9068V50.9952H39.1099V50.6443H39.97V50.3722H38.7861V51.9717H40.0004V51.6996H39.1099V51.2673Z" fill="#8E8F99"/>
</svg>
