<svg width="44" height="41" viewBox="0 0 44 41" fill="none" xmlns="http://www.w3.org/2000/svg">
<path d="M6.81031 40.2234C6.82642 40.2238 6.84229 40.2269 6.85698 40.2325C6.87167 40.2382 6.8849 40.2463 6.89588 40.2564L7.11671 40.464C6.9453 40.632 6.73344 40.7664 6.49563 40.8579C6.21714 40.9578 5.91701 41.006 5.61508 40.9994C5.33136 41.0044 5.04948 40.9595 4.78698 40.8673C4.55019 40.7827 4.33744 40.6556 4.16314 40.4946C3.98524 40.3277 3.84822 40.132 3.76013 39.9191C3.66365 39.6818 3.61602 39.432 3.61935 39.1808C3.61543 38.928 3.66693 38.6768 3.77117 38.4401C3.8676 38.2259 4.01305 38.0302 4.19902 37.8646C4.38751 37.7022 4.61299 37.5745 4.8615 37.4895C5.13338 37.3995 5.42288 37.3546 5.71445 37.3574C5.98529 37.3518 6.25469 37.3927 6.50667 37.4777C6.72529 37.5588 6.92603 37.6713 7.10015 37.8103L6.9152 38.0321C6.90243 38.0477 6.88654 38.0612 6.86828 38.0722C6.84645 38.0849 6.82009 38.0908 6.79375 38.0887C6.7651 38.087 6.73748 38.0788 6.7137 38.0651L6.61432 38.0061L6.47631 37.9306C6.41673 37.9026 6.35493 37.8782 6.29136 37.8575C6.20949 37.8325 6.12552 37.8128 6.04017 37.7985C5.93185 37.7815 5.82183 37.7736 5.71169 37.775C5.50174 37.7727 5.29338 37.8064 5.09889 37.874C4.91752 37.9367 4.7538 38.0315 4.61859 38.1524C4.48095 38.2809 4.37489 38.4317 4.30667 38.5958C4.22893 38.7836 4.19062 38.9816 4.1935 39.1808C4.19019 39.3831 4.22849 39.5843 4.30667 39.7752C4.37403 39.938 4.47813 40.0878 4.61307 40.2163C4.7395 40.3361 4.89621 40.4297 5.07129 40.4899C5.25147 40.5538 5.44488 40.5859 5.63992 40.5843C5.75259 40.5858 5.86521 40.5795 5.97668 40.5654C6.15871 40.5464 6.33331 40.4924 6.48735 40.4074C6.56461 40.3638 6.63755 40.3149 6.70542 40.2611C6.73379 40.238 6.77112 40.2246 6.81031 40.2234Z" fill="#8E8F99"/>
<path d="M13.1862 39.1807C13.1896 39.4309 13.1391 39.6796 13.0371 39.9142C12.9472 40.127 12.8055 40.3211 12.6213 40.4837C12.4372 40.6463 12.2148 40.7738 11.9689 40.8576C11.4285 41.0338 10.8311 41.0338 10.2906 40.8576C10.0462 40.7725 9.82532 40.6448 9.64194 40.4826C9.45793 40.317 9.31519 40.1212 9.22238 39.9071C9.02353 39.432 9.02353 38.9128 9.22238 38.4377C9.31654 38.2234 9.4591 38.0271 9.64194 37.8598C9.82688 37.7028 10.0477 37.5799 10.2906 37.499C10.8304 37.3197 11.4291 37.3197 11.9689 37.499C12.2141 37.5841 12.4359 37.7118 12.6203 37.874C12.802 38.0379 12.9437 38.2312 13.0371 38.4424C13.1394 38.6786 13.1899 38.9288 13.1862 39.1807ZM12.6065 39.1807C12.6109 38.9805 12.5754 38.7811 12.5016 38.591C12.4398 38.4282 12.3392 38.278 12.2063 38.1499C12.0769 38.0288 11.9175 37.9337 11.7398 37.8716C11.3471 37.7427 10.9124 37.7427 10.5197 37.8716C10.342 37.9337 10.1827 38.0288 10.0532 38.1499C9.91843 38.2773 9.81682 38.4276 9.75512 38.591C9.61467 38.975 9.61467 39.3864 9.75512 39.7703C9.81742 39.9335 9.91897 40.0837 10.0532 40.2114C10.1828 40.3318 10.3422 40.4261 10.5197 40.4873C10.9131 40.613 11.3464 40.613 11.7398 40.4873C11.9173 40.4261 12.0767 40.3318 12.2063 40.2114C12.3386 40.083 12.4391 39.9329 12.5016 39.7703C12.5757 39.5803 12.6112 39.3809 12.6065 39.1807Z" fill="#8E8F99"/>
<path d="M17.5368 39.7987L17.5947 39.9308C17.6168 39.8836 17.6361 39.8412 17.6582 39.7987C17.6793 39.7544 17.7032 39.7111 17.73 39.669L19.1405 37.4781C19.1681 37.4404 19.193 37.4168 19.2206 37.4097C19.2581 37.4 19.2974 37.396 19.3365 37.3979H19.7533V40.9614H19.2592V38.3413C19.2592 38.3083 19.2592 38.2705 19.2592 38.2304C19.2566 38.1896 19.2566 38.1486 19.2592 38.1078L17.8404 40.3293C17.8224 40.3626 17.7936 40.3908 17.7573 40.4104C17.7211 40.4301 17.679 40.4404 17.6361 40.4402H17.5561C17.5131 40.4407 17.4709 40.4305 17.4346 40.4108C17.3983 40.3911 17.3695 40.3628 17.3518 40.3293L15.8916 38.0937C15.8916 38.1361 15.8916 38.1786 15.8916 38.221C15.8916 38.2635 15.8916 38.3012 15.8916 38.3342V40.9543H15.4141V37.3979H15.8309C15.87 37.396 15.9093 37.4 15.9468 37.4097C15.981 37.4242 16.0083 37.4484 16.0241 37.4781L17.465 39.6714C17.4933 39.7119 17.5173 39.7545 17.5368 39.7987Z" fill="#8E8F99"/>
<path d="M22.845 39.6217V40.9564H22.293V37.3978H23.5241C23.7565 37.394 23.9882 37.4202 24.2114 37.4756C24.3901 37.5189 24.5558 37.5945 24.6972 37.6973C24.8198 37.7937 24.9144 37.9132 24.9733 38.0463C25.0384 38.1915 25.0703 38.346 25.0671 38.5015C25.0695 38.6576 25.0348 38.8124 24.965 38.9566C24.8986 39.0932 24.7967 39.215 24.6669 39.3127C24.5252 39.4198 24.3587 39.5002 24.1783 39.5486C23.9634 39.6072 23.7386 39.6351 23.513 39.6311L22.845 39.6217ZM22.845 39.2396H23.513C23.6581 39.2412 23.8026 39.2229 23.9409 39.1854C24.055 39.1526 24.1601 39.1005 24.2501 39.0321C24.333 38.9668 24.3972 38.8862 24.4378 38.7963C24.4829 38.7012 24.5055 38.5994 24.504 38.4968C24.5104 38.3978 24.4915 38.2989 24.4486 38.2069C24.4057 38.1148 24.3398 38.0319 24.2556 37.9638C24.0447 37.8231 23.7798 37.755 23.513 37.7728H22.845V39.2396Z" fill="#8E8F99"/>
<path d="M30.2641 40.9613H29.828C29.7842 40.9627 29.7413 40.951 29.7065 40.9282C29.6752 40.906 29.6506 40.8777 29.6348 40.8457L29.2594 39.9848H27.374L26.9848 40.8457C26.9705 40.8772 26.9467 40.9048 26.9158 40.9259C26.8807 40.95 26.8366 40.9626 26.7916 40.9613H26.3555L28.0117 37.3975H28.5858L30.2641 40.9613ZM27.5314 39.6381H29.0882L28.4312 38.1876C28.381 38.0785 28.3395 37.9666 28.307 37.8527L28.2435 38.039C28.2242 38.0956 28.2021 38.1475 28.1828 38.1899L27.5314 39.6381Z" fill="#8E8F99"/>
<path d="M32.6498 37.414C32.6828 37.4295 32.7111 37.4513 32.7326 37.4777L35.1479 40.1641C35.1479 40.1216 35.1479 40.0792 35.1479 40.0391C35.1479 39.999 35.1479 39.9589 35.1479 39.9212V37.3975H35.642V40.9613H35.366C35.3268 40.9623 35.2879 40.955 35.2528 40.9401C35.2187 40.9231 35.1887 40.9007 35.1645 40.874L32.7519 38.19C32.7546 38.2309 32.7546 38.2718 32.7519 38.3126C32.7519 38.3527 32.7519 38.3881 32.7519 38.4211V40.9613H32.2578V37.3975H32.5504C32.5846 37.3967 32.6185 37.4024 32.6498 37.414Z" fill="#8E8F99"/>
<path d="M39.7104 39.5443V40.9594H39.1583V39.5443L37.6318 37.398H38.1259C38.1685 37.3959 38.2106 37.4067 38.2446 37.4287C38.2747 37.4516 38.2999 37.4787 38.3192 37.5089L39.2743 38.8933C39.3129 38.9523 39.346 39.0065 39.3736 39.0584C39.4012 39.1103 39.4233 39.1598 39.4426 39.2094L39.5144 39.0561C39.5412 39 39.5726 38.9456 39.6083 38.8933L40.5495 37.4994C40.5693 37.4716 40.5935 37.4462 40.6213 37.424C40.6541 37.3995 40.6966 37.3868 40.74 37.3886H41.2396L39.7104 39.5443Z" fill="#8E8F99"/>
<path d="M17.2637 31.4169C17.5038 31.4429 17.7467 31.4641 17.9924 31.4829C21.717 30.0594 24.8678 27.7294 27.051 24.7843C29.2343 21.8392 30.3532 18.4096 30.2677 14.9242L26.1631 11.4171C26.9976 15.128 26.6073 18.9641 25.0356 22.4962C23.4639 26.0283 20.7729 29.1171 17.2637 31.4169Z" fill="#8E8F99"/>
<path d="M15.7979 31.2542L15.9083 31.273C19.6582 28.9813 22.5172 25.7812 24.1155 22.0863C25.7138 18.3915 25.978 14.3719 24.8739 10.5475L19.0275 5.55237C21.3922 9.65823 22.344 14.2533 21.7723 18.8032C21.2006 23.353 19.1288 27.6708 15.7979 31.2542Z" fill="#8E8F99"/>
<path d="M35.6256 19.0426C34.6323 22.8722 32.22 26.3261 28.7468 28.8914C27.7324 29.6447 26.6383 30.3158 25.4785 30.896C28.3067 30.1858 30.9062 28.9301 33.0766 27.2258C35.247 25.5215 36.9303 23.4141 37.9967 21.0661L35.6256 19.0426Z" fill="#8E8F99"/>
<path d="M34.6952 18.4786L31.3193 15.5942C31.2547 18.8828 30.1605 22.0965 28.1504 24.9015C26.1402 27.7065 23.2875 30.0002 19.8887 31.5445H19.9052C20.6627 31.5442 21.4194 31.5056 22.1715 31.4289C25.3479 30.3212 28.1539 28.5589 30.3391 26.2992C32.5244 24.0395 34.0209 21.3527 34.6952 18.4786Z" fill="#8E8F99"/>
<path d="M16.2861 3.44571L12.2587 0C8.65843 1.18869 5.56201 3.27837 3.37474 5.99554C1.18746 8.71271 0.0112346 11.9308 0 15.2286H0C0.0134937 18.8725 1.44899 22.4085 4.0793 25.277C6.7096 28.1454 10.3845 30.1824 14.5222 31.0656C18.216 27.2206 20.3786 22.4694 20.6958 17.5024C21.013 12.5353 19.4683 7.61131 16.2861 3.44571Z" fill="#8E8F99"/>
<path d="M43.9999 17.9477C43.9853 13.6244 41.9687 9.48165 38.3907 6.42457C34.8126 3.36749 29.9639 1.64453 24.9038 1.63209C22.5656 1.63002 20.2472 1.99867 18.0664 2.71933L42.7246 23.7872C43.5689 21.9249 44.0013 19.9449 43.9999 17.9477Z" fill="#8E8F99"/>
</svg>
