<svg width="95" height="44" viewBox="0 0 95 44" fill="none" xmlns="http://www.w3.org/2000/svg">
<path d="M48.3926 20.6767C47.9486 20.0858 47.7362 19.3876 47.7866 18.6847V15.7966C47.7866 14.9113 47.9875 14.2385 48.3892 13.7782C48.791 13.3179 49.481 13.0888 50.4593 13.0907C51.3786 13.0907 52.0311 13.2866 52.417 13.6783C52.8379 14.1781 53.0427 14.7894 52.9958 15.4059V16.0846H51.3513V15.3971C51.3572 15.172 51.3412 14.947 51.3037 14.7243C51.28 14.572 51.1972 14.4311 51.0687 14.3247C50.8999 14.21 50.6871 14.1544 50.4729 14.169C50.2476 14.1545 50.0242 14.2131 49.8464 14.3335C49.7032 14.4514 49.6077 14.6059 49.5741 14.7742C49.5269 15.0099 49.5052 15.2489 49.5094 15.4881V18.9932C49.4834 19.3313 49.556 19.6697 49.7205 19.9774C49.8023 20.0816 49.9158 20.1641 50.0486 20.216C50.1814 20.2678 50.3283 20.287 50.4729 20.2712C50.6836 20.2862 50.8926 20.2292 51.0551 20.1126C51.1891 19.9978 51.2753 19.848 51.3003 19.6866C51.3387 19.454 51.3557 19.2192 51.3513 18.9844V18.2734H52.9958V18.9227C53.042 19.5653 52.8422 20.2033 52.4272 20.7384C52.0493 21.1673 51.4058 21.3818 50.4593 21.3818C49.5128 21.3818 48.7978 21.1527 48.3926 20.6767Z" fill="#8E8F99"/>
<path d="M55.2393 20.7061C54.8239 20.2566 54.6162 19.6014 54.6162 18.7347V15.6967C54.6162 14.8388 54.8239 14.1895 55.2393 13.7488C55.6546 13.3081 56.3492 13.0888 57.3229 13.0907C58.2898 13.0907 58.981 13.3101 59.3963 13.7488C59.8117 14.1895 60.0228 14.8388 60.0228 15.6967V18.7347C60.0228 19.5926 59.8117 20.2507 59.3895 20.7031C58.9674 21.1556 58.2796 21.3818 57.3229 21.3818C56.3662 21.3818 55.658 21.1527 55.2393 20.7061ZM58.089 19.9774C58.2377 19.6959 58.3055 19.3874 58.2864 19.0784V15.3589C58.3055 15.0558 58.2389 14.7533 58.0924 14.4775C58.0089 14.3711 57.8926 14.2872 57.7565 14.2353C57.6204 14.1833 57.4702 14.1654 57.3229 14.1837C57.1752 14.1659 57.0246 14.184 56.8881 14.2359C56.7516 14.2878 56.6346 14.3714 56.5501 14.4775C56.4003 14.7525 56.3325 15.0555 56.3526 15.3589V19.096C56.3319 19.4052 56.3997 19.7139 56.5501 19.9951C56.6459 20.0898 56.7642 20.1658 56.8969 20.2179C57.0296 20.2699 57.1737 20.2968 57.3195 20.2968C57.4653 20.2968 57.6094 20.2699 57.7421 20.2179C57.8748 20.1658 57.9931 20.0898 58.089 19.9951V19.9774Z" fill="#8E8F99"/>
<path d="M62.0008 13.1794H63.7713L65.1025 18.7846L66.4644 13.1794H68.1872L68.3608 21.2699H67.0875L66.9513 15.6471L65.6371 21.2699H64.6157L63.2538 15.6265L63.1278 21.2699H61.8408L62.0008 13.1794Z" fill="#8E8F99"/>
<path d="M70.3462 13.1794H73.1039C74.6928 13.1794 75.4872 13.9452 75.4872 15.4767C75.4872 16.9436 74.6508 17.6761 72.978 17.6741H72.0383V21.2699H70.3359L70.3462 13.1794ZM72.7022 16.6371C72.8704 16.6555 73.0412 16.6422 73.2029 16.5981C73.3645 16.554 73.5131 16.4801 73.6385 16.3815C73.8337 16.1083 73.9198 15.7874 73.8836 15.4679C73.8925 15.2211 73.865 14.9743 73.8019 14.7335C73.7776 14.653 73.735 14.5776 73.6765 14.5115C73.6181 14.4454 73.5449 14.3901 73.4614 14.3486C73.2251 14.2508 72.9639 14.2064 72.7022 14.2194H72.0417V16.6371H72.7022Z" fill="#8E8F99"/>
<path d="M77.9424 13.1794H79.7707L81.6466 21.2699H80.0601L79.689 19.4044H78.0581L77.6768 21.2699H76.0664L77.9424 13.1794ZM79.5051 18.4673L78.8684 15.0713L78.2318 18.4673H79.5051Z" fill="#8E8F99"/>
<path d="M83.1616 13.1794H84.3533L86.6344 17.7946V13.1794H88.0474V21.2699H86.9136L84.6188 16.452V21.2699H83.1582L83.1616 13.1794Z" fill="#8E8F99"/>
<path d="M91.3564 18.185L89.46 13.1907H91.0568L92.2143 16.3988L93.3004 13.1907H94.8632L92.9906 18.185V21.2697H91.3564V18.185Z" fill="#8E8F99"/>
<path d="M51.0215 24.807V25.2301H49.6324V28.5176H49.0502V25.2301H47.6543V24.807H51.0215Z" fill="#8E8F99"/>
<path d="M55.376 28.5178H54.9266C54.8809 28.5203 54.8359 28.5077 54.8006 28.4826C54.7666 28.461 54.7406 28.4315 54.7257 28.3974L54.3239 27.5161H52.3968L51.9951 28.3974C51.9837 28.4343 51.9627 28.4684 51.9338 28.4973C51.8982 28.5219 51.8534 28.5344 51.8078 28.5325H51.3584L53.0608 24.8221H53.6532L55.376 28.5178ZM52.5569 27.14H54.1639L53.483 25.63C53.4327 25.5158 53.3906 25.3991 53.357 25.2804C53.3331 25.3509 53.3127 25.4185 53.2923 25.4773L53.231 25.633L52.5569 27.14Z" fill="#8E8F99"/>
<path d="M58.3105 28.1536C58.4171 28.1584 58.5239 28.1584 58.6305 28.1536C58.7226 28.1454 58.8137 28.1306 58.9029 28.1095C58.9863 28.0918 59.0682 28.0693 59.148 28.0419C59.2229 28.0155 59.2978 27.9832 59.3762 27.9508V27.1164H58.6952C58.6784 27.1172 58.6615 27.115 58.6457 27.11C58.6299 27.1049 58.6154 27.0971 58.6033 27.087C58.5921 27.0787 58.5833 27.0683 58.5774 27.0566C58.5715 27.0449 58.5687 27.0322 58.5692 27.0194V26.7344H59.8903V28.1565C59.7824 28.2231 59.6686 28.282 59.5498 28.3328C59.4284 28.3845 59.3019 28.4268 59.1719 28.4591C59.0326 28.4945 58.8903 28.52 58.7463 28.5355C58.5812 28.5513 58.4153 28.5592 58.2492 28.559C57.9556 28.5612 57.6642 28.5143 57.3912 28.4209C57.1363 28.3325 56.9047 28.2006 56.7103 28.0331C56.5207 27.8639 56.3715 27.6643 56.2711 27.4455C56.1638 27.1995 56.1106 26.9384 56.1144 26.6757C56.1109 26.4112 56.1628 26.1485 56.2677 25.9C56.3656 25.6801 56.5151 25.48 56.7069 25.3124C56.9012 25.1454 57.1329 25.0144 57.3878 24.9274C57.6794 24.8328 57.9888 24.786 58.3003 24.7894C58.4588 24.7892 58.617 24.8 58.7735 24.8217C58.9119 24.8411 59.0477 24.8726 59.1787 24.9157C59.2978 24.9543 59.4119 25.0035 59.5192 25.0626C59.6235 25.1206 59.7225 25.1854 59.8154 25.2565L59.6519 25.4857C59.6391 25.5066 59.6201 25.5242 59.5967 25.5366C59.5734 25.549 59.5466 25.5558 59.5192 25.5562C59.4815 25.5552 59.4449 25.545 59.4136 25.5268C59.3625 25.5033 59.3081 25.4739 59.2468 25.4387C59.1744 25.3995 59.098 25.3661 59.0187 25.3388C58.9172 25.3037 58.8124 25.2761 58.7054 25.2565C58.5628 25.2339 58.418 25.223 58.273 25.2242C58.0484 25.2221 57.8254 25.257 57.6159 25.327C57.4265 25.3926 57.2557 25.4929 57.1154 25.6209C56.9743 25.7542 56.8665 25.9113 56.7988 26.0822C56.6467 26.484 56.6467 26.9172 56.7988 27.3191C56.8733 27.4936 56.9893 27.6528 57.1393 27.7863C57.2789 27.9136 57.4484 28.0138 57.6364 28.0801C57.8528 28.1442 58.0823 28.1693 58.3105 28.1536Z" fill="#8E8F99"/>
<path d="M63.7375 28.0945H65.5965V28.5176H63.1689V24.807H63.7512L63.7375 28.0945Z" fill="#8E8F99"/>
<path d="M67.5305 28.5176H66.9482V24.807H67.5305V28.5176Z" fill="#8E8F99"/>
<path d="M69.6962 24.8247C69.7308 24.8417 69.7609 24.8647 69.7847 24.8923L72.2735 27.6893C72.2701 27.6453 72.2701 27.6011 72.2735 27.5571C72.2735 27.516 72.2735 27.4748 72.2735 27.4366V24.7924H72.7808V28.5179H72.488C72.4446 28.5209 72.4011 28.5138 72.362 28.4973C72.3267 28.4788 72.2955 28.4549 72.2701 28.4268L69.7847 25.6327C69.7847 25.6767 69.7847 25.7179 69.7847 25.759C69.7847 25.8001 69.7847 25.8383 69.7847 25.8736V28.5179H69.2979V24.807H69.6009C69.6337 24.8071 69.6662 24.8131 69.6962 24.8247Z" fill="#8E8F99"/>
<path d="M77.0667 24.807V25.2154H75.0035V26.4405H76.6752V26.8342H75.0035V28.1005H77.0667V28.5088H74.4043V24.807H77.0667Z" fill="#8E8F99"/>
<path d="M16.0585 1.89211L41.9103 8.22614V30.4217L16.0585 24.0906V1.89211ZM14.4004 0.00012207V25.1688L43.565 32.3166V7.15088L14.4004 0.00012207Z" fill="#8E8F99"/>
<path d="M30.0313 44.0001L0.863281 36.8463V11.6803L30.0313 18.8311V44.0001Z" fill="#8E8F99"/>
<path d="M14.8838 1.60711L40.3985 7.86171L29.5478 17.2275L4.02964 10.9699L14.8838 1.60711ZM14.4003 0.00012207L0.863281 11.6809L30.0312 18.8315L43.5649 7.15076L14.4003 0.00012207Z" fill="#8E8F99"/>
<path d="M31.6719 42.5843L43.5644 32.3197L31.6719 29.4025V42.5843Z" fill="#8E8F99"/>
</svg>
