<svg width="85" height="41" viewBox="0 0 85 41" fill="none" xmlns="http://www.w3.org/2000/svg">
<path d="M13.8801 12.5179H13.8772C11.4916 12.5179 9.55762 14.2616 9.55762 16.4124V16.415C9.55762 18.5658 11.4916 20.3094 13.8772 20.3094H13.8801C16.2657 20.3094 18.1997 18.5658 18.1997 16.415V16.4124C18.1997 14.2616 16.2657 12.5179 13.8801 12.5179Z" fill="#8E8F99"/>
<path d="M45.7632 11.273C45.7564 8.2855 44.4373 5.42211 42.0946 3.30942C39.7519 1.19673 36.5763 0.00678345 33.2629 0V0C29.9484 0.00542712 26.7714 1.19477 24.4274 3.30761C22.0835 5.42045 20.7636 8.28461 20.7568 11.273V27.7472C20.7568 27.7472 45.7604 25.2364 45.7632 11.2755V11.273Z" fill="#8E8F99"/>
<path d="M0.801758 33.1543C0.807768 35.233 1.7261 37.2251 3.3561 38.6952C4.98609 40.1653 7.19521 40.9939 9.50074 41C11.8058 40.9939 14.0145 40.1657 15.6444 38.6961C17.2743 37.2265 18.193 35.2351 18.1997 33.1569V21.6938C18.1997 21.6938 0.801758 23.4422 0.801758 33.1543ZM9.50074 35.2082C9.0502 35.2082 8.60978 35.0877 8.23517 34.862C7.86056 34.6364 7.56859 34.3156 7.39617 33.9403C7.22376 33.565 7.17865 33.152 7.26654 32.7536C7.35444 32.3552 7.57139 31.9893 7.88997 31.702C8.20855 31.4148 8.61445 31.2192 9.05633 31.1399C9.49821 31.0607 9.95623 31.1014 10.3725 31.2568C10.7887 31.4123 11.1445 31.6755 11.3948 32.0133C11.6451 32.351 11.7787 32.7481 11.7787 33.1543C11.7798 33.4247 11.7217 33.6926 11.6078 33.9427C11.4938 34.1927 11.3262 34.4201 11.1145 34.6116C10.9029 34.8031 10.6514 34.9551 10.3745 35.0588C10.0975 35.1625 9.8006 35.2159 9.50074 35.2159V35.2082Z" fill="#8E8F99"/>
<path d="M25.4102 31.515V35.7806H24.5312V31.515H25.4102ZM27.1094 33.3373V34.0228H25.1699V33.3373H27.1094ZM27.3145 31.515V32.2035H25.1699V31.515H27.3145ZM31.3281 33.5482V33.7504C31.3281 34.0746 31.2842 34.3656 31.1963 34.6234C31.1084 34.8812 30.9844 35.101 30.8242 35.2826C30.6641 35.4623 30.4727 35.6 30.25 35.6957C30.0293 35.7914 29.7842 35.8392 29.5146 35.8392C29.2471 35.8392 29.002 35.7914 28.7793 35.6957C28.5586 35.6 28.3672 35.4623 28.2051 35.2826C28.043 35.101 27.917 34.8812 27.8271 34.6234C27.7393 34.3656 27.6953 34.0746 27.6953 33.7504V33.5482C27.6953 33.222 27.7393 32.931 27.8271 32.6752C27.915 32.4174 28.0391 32.1976 28.1992 32.016C28.3613 31.8344 28.5527 31.6957 28.7734 31.6C28.9961 31.5043 29.2412 31.4564 29.5088 31.4564C29.7783 31.4564 30.0234 31.5043 30.2441 31.6C30.4668 31.6957 30.6582 31.8344 30.8184 32.016C30.9805 32.1976 31.1055 32.4174 31.1934 32.6752C31.2832 32.931 31.3281 33.222 31.3281 33.5482ZM30.4404 33.7504V33.5424C30.4404 33.3158 30.4199 33.1166 30.3789 32.9447C30.3379 32.7728 30.2773 32.6283 30.1973 32.5111C30.1172 32.3939 30.0195 32.306 29.9043 32.2474C29.7891 32.1869 29.6572 32.1566 29.5088 32.1566C29.3604 32.1566 29.2285 32.1869 29.1133 32.2474C29 32.306 28.9033 32.3939 28.8232 32.5111C28.7451 32.6283 28.6855 32.7728 28.6445 32.9447C28.6035 33.1166 28.583 33.3158 28.583 33.5424V33.7504C28.583 33.975 28.6035 34.1742 28.6445 34.348C28.6855 34.5199 28.7461 34.6654 28.8262 34.7845C28.9062 34.9017 29.0039 34.9906 29.1191 35.0511C29.2344 35.1117 29.3662 35.142 29.5146 35.142C29.6631 35.142 29.7949 35.1117 29.9102 35.0511C30.0254 34.9906 30.1221 34.9017 30.2002 34.7845C30.2783 34.6654 30.3379 34.5199 30.3789 34.348C30.4199 34.1742 30.4404 33.975 30.4404 33.7504ZM34.1816 34.6644C34.1816 34.5883 34.1699 34.5199 34.1465 34.4594C34.125 34.3969 34.084 34.3402 34.0234 34.2894C33.9629 34.2367 33.8779 34.1849 33.7686 34.1342C33.6592 34.0834 33.5176 34.0306 33.3438 33.976C33.1504 33.9135 32.9668 33.8431 32.793 33.765C32.6211 33.6869 32.4688 33.5961 32.3359 33.4926C32.2051 33.3871 32.1016 33.265 32.0254 33.1263C31.9512 32.9877 31.9141 32.8265 31.9141 32.6429C31.9141 32.4652 31.9531 32.3041 32.0312 32.1595C32.1094 32.0131 32.2188 31.8881 32.3594 31.7845C32.5 31.6791 32.666 31.598 32.8574 31.5414C33.0508 31.4847 33.2627 31.4564 33.4932 31.4564C33.8076 31.4564 34.082 31.5131 34.3164 31.6263C34.5508 31.7396 34.7324 31.8949 34.8613 32.0922C34.9922 32.2894 35.0576 32.515 35.0576 32.7689H34.1846C34.1846 32.6439 34.1582 32.5345 34.1055 32.4408C34.0547 32.3451 33.9766 32.2699 33.8711 32.2152C33.7676 32.1605 33.6367 32.1332 33.4785 32.1332C33.3262 32.1332 33.1992 32.1566 33.0977 32.2035C32.9961 32.2484 32.9199 32.3099 32.8691 32.3881C32.8184 32.4642 32.793 32.5502 32.793 32.6459C32.793 32.7181 32.8105 32.7836 32.8457 32.8422C32.8828 32.9008 32.9375 32.9554 33.0098 33.0062C33.082 33.057 33.1709 33.1049 33.2764 33.1498C33.3818 33.1947 33.5039 33.2386 33.6426 33.2816C33.875 33.3519 34.0791 33.431 34.2549 33.5189C34.4326 33.6068 34.5811 33.7054 34.7002 33.8148C34.8193 33.9242 34.9092 34.0482 34.9697 34.1869C35.0303 34.3256 35.0605 34.4828 35.0605 34.6586C35.0605 34.8441 35.0244 35.0101 34.9521 35.1566C34.8799 35.3031 34.7754 35.4271 34.6387 35.5287C34.502 35.6302 34.3389 35.7074 34.1494 35.7601C33.96 35.8129 33.748 35.8392 33.5137 35.8392C33.3027 35.8392 33.0947 35.8119 32.8896 35.7572C32.6846 35.7006 32.498 35.6156 32.3301 35.5023C32.1641 35.389 32.0312 35.2445 31.9316 35.0687C31.832 34.8929 31.7822 34.6849 31.7822 34.4447H32.6641C32.6641 34.5775 32.6846 34.6898 32.7256 34.7816C32.7666 34.8734 32.8242 34.9476 32.8984 35.0043C32.9746 35.0609 33.0645 35.1019 33.168 35.1273C33.2734 35.1527 33.3887 35.1654 33.5137 35.1654C33.666 35.1654 33.791 35.1439 33.8887 35.101C33.9883 35.058 34.0615 34.9984 34.1084 34.9222C34.1572 34.8461 34.1816 34.7601 34.1816 34.6644ZM37.5654 31.515V35.7806H36.6895V31.515H37.5654ZM38.8779 31.515V32.2035H35.3975V31.515H38.8779ZM42.2412 35.0951V35.7806H39.9707V35.0951H42.2412ZM40.2578 31.515V35.7806H39.3789V31.515H40.2578ZM41.9453 33.2523V33.9203H39.9707V33.2523H41.9453ZM42.2383 31.515V32.2035H39.9707V31.515H42.2383ZM42.7539 31.515H44.3447C44.6709 31.515 44.9512 31.5638 45.1855 31.6615C45.4219 31.7592 45.6035 31.9037 45.7305 32.0951C45.8574 32.2865 45.9209 32.5219 45.9209 32.8011C45.9209 33.0297 45.8818 33.226 45.8037 33.39C45.7275 33.5521 45.6191 33.6879 45.4785 33.7972C45.3398 33.9047 45.1768 33.9906 44.9893 34.0551L44.7109 34.2015H43.3281L43.3223 33.516H44.3506C44.5049 33.516 44.6328 33.4886 44.7344 33.434C44.8359 33.3793 44.9121 33.3031 44.9629 33.2054C45.0156 33.1078 45.042 32.9945 45.042 32.8656C45.042 32.7289 45.0166 32.6107 44.9658 32.5111C44.915 32.4115 44.8379 32.3353 44.7344 32.2826C44.6309 32.2299 44.501 32.2035 44.3447 32.2035H43.6328V35.7806H42.7539V31.515ZM45.1387 35.7806L44.166 33.8793L45.0947 33.8734L46.0791 35.7396V35.7806H45.1387ZM49.7529 34.2601H48.666V33.5746H49.7529C49.9209 33.5746 50.0576 33.5472 50.1631 33.4926C50.2686 33.4359 50.3457 33.3578 50.3945 33.2582C50.4434 33.1586 50.4678 33.0463 50.4678 32.9213C50.4678 32.7943 50.4434 32.6761 50.3945 32.5668C50.3457 32.4574 50.2686 32.3695 50.1631 32.3031C50.0576 32.2367 49.9209 32.2035 49.7529 32.2035H48.9707V35.7806H48.0918V31.515H49.7529C50.0869 31.515 50.373 31.5756 50.6113 31.6967C50.8516 31.8158 51.0352 31.9808 51.1621 32.1918C51.2891 32.4027 51.3525 32.6439 51.3525 32.9154C51.3525 33.1908 51.2891 33.4291 51.1621 33.6302C51.0352 33.8314 50.8516 33.9867 50.6113 34.0961C50.373 34.2054 50.0869 34.2601 49.7529 34.2601ZM54.8213 35.0951V35.7806H52.5508V35.0951H54.8213ZM52.8379 31.515V35.7806H51.959V31.515H52.8379ZM54.5254 33.2523V33.9203H52.5508V33.2523H54.5254ZM54.8184 31.515V32.2035H52.5508V31.515H54.8184ZM57.2998 31.515V35.7806H56.4238V31.515H57.2998ZM58.6123 31.515V32.2035H55.1318V31.515H58.6123ZM61.9756 35.0951V35.7806H59.7051V35.0951H61.9756ZM59.9922 31.515V35.7806H59.1133V31.515H59.9922ZM61.6797 33.2523V33.9203H59.7051V33.2523H61.6797ZM61.9727 31.515V32.2035H59.7051V31.515H61.9727ZM62.4883 31.515H64.0791C64.4053 31.515 64.6855 31.5638 64.9199 31.6615C65.1562 31.7592 65.3379 31.9037 65.4648 32.0951C65.5918 32.2865 65.6553 32.5219 65.6553 32.8011C65.6553 33.0297 65.6162 33.226 65.5381 33.39C65.4619 33.5521 65.3535 33.6879 65.2129 33.7972C65.0742 33.9047 64.9111 33.9906 64.7236 34.0551L64.4453 34.2015H63.0625L63.0566 33.516H64.085C64.2393 33.516 64.3672 33.4886 64.4688 33.434C64.5703 33.3793 64.6465 33.3031 64.6973 33.2054C64.75 33.1078 64.7764 32.9945 64.7764 32.8656C64.7764 32.7289 64.751 32.6107 64.7002 32.5111C64.6494 32.4115 64.5723 32.3353 64.4688 32.2826C64.3652 32.2299 64.2354 32.2035 64.0791 32.2035H63.3672V35.7806H62.4883V31.515ZM64.873 35.7806L63.9004 33.8793L64.8291 33.8734L65.8135 35.7396V35.7806H64.873ZM68.5527 34.6644C68.5527 34.5883 68.541 34.5199 68.5176 34.4594C68.4961 34.3969 68.4551 34.3402 68.3945 34.2894C68.334 34.2367 68.249 34.1849 68.1396 34.1342C68.0303 34.0834 67.8887 34.0306 67.7148 33.976C67.5215 33.9135 67.3379 33.8431 67.1641 33.765C66.9922 33.6869 66.8398 33.5961 66.707 33.4926C66.5762 33.3871 66.4727 33.265 66.3965 33.1263C66.3223 32.9877 66.2852 32.8265 66.2852 32.6429C66.2852 32.4652 66.3242 32.3041 66.4023 32.1595C66.4805 32.0131 66.5898 31.8881 66.7305 31.7845C66.8711 31.6791 67.0371 31.598 67.2285 31.5414C67.4219 31.4847 67.6338 31.4564 67.8643 31.4564C68.1787 31.4564 68.4531 31.5131 68.6875 31.6263C68.9219 31.7396 69.1035 31.8949 69.2324 32.0922C69.3633 32.2894 69.4287 32.515 69.4287 32.7689H68.5557C68.5557 32.6439 68.5293 32.5345 68.4766 32.4408C68.4258 32.3451 68.3477 32.2699 68.2422 32.2152C68.1387 32.1605 68.0078 32.1332 67.8496 32.1332C67.6973 32.1332 67.5703 32.1566 67.4688 32.2035C67.3672 32.2484 67.291 32.3099 67.2402 32.3881C67.1895 32.4642 67.1641 32.5502 67.1641 32.6459C67.1641 32.7181 67.1816 32.7836 67.2168 32.8422C67.2539 32.9008 67.3086 32.9554 67.3809 33.0062C67.4531 33.057 67.542 33.1049 67.6475 33.1498C67.7529 33.1947 67.875 33.2386 68.0137 33.2816C68.2461 33.3519 68.4502 33.431 68.626 33.5189C68.8037 33.6068 68.9521 33.7054 69.0713 33.8148C69.1904 33.9242 69.2803 34.0482 69.3408 34.1869C69.4014 34.3256 69.4316 34.4828 69.4316 34.6586C69.4316 34.8441 69.3955 35.0101 69.3232 35.1566C69.251 35.3031 69.1465 35.4271 69.0098 35.5287C68.873 35.6302 68.71 35.7074 68.5205 35.7601C68.3311 35.8129 68.1191 35.8392 67.8848 35.8392C67.6738 35.8392 67.4658 35.8119 67.2607 35.7572C67.0557 35.7006 66.8691 35.6156 66.7012 35.5023C66.5352 35.389 66.4023 35.2445 66.3027 35.0687C66.2031 34.8929 66.1533 34.6849 66.1533 34.4447H67.0352C67.0352 34.5775 67.0557 34.6898 67.0967 34.7816C67.1377 34.8734 67.1953 34.9476 67.2695 35.0043C67.3457 35.0609 67.4355 35.1019 67.5391 35.1273C67.6445 35.1527 67.7598 35.1654 67.8848 35.1654C68.0371 35.1654 68.1621 35.1439 68.2598 35.101C68.3594 35.058 68.4326 34.9984 68.4795 34.9222C68.5283 34.8461 68.5527 34.7601 68.5527 34.6644Z" fill="#8E8F99"/>
</svg>
