<svg width="40" height="48" viewBox="0 0 40 48" fill="none" xmlns="http://www.w3.org/2000/svg">
<path fill-rule="evenodd" clip-rule="evenodd" d="M5.85366 0L12.6901 6.84011L0 6.83221V40.021H33.1707V27.3318L40 34.1647V0H5.85366ZM32.8706 26.5284L13.4859 7.13321H32.8706V26.5284ZM26.8518 35.1663H5.24886V12.8451H6.7759V33.6548H26.8518V35.1663ZM9.59424 46.0918L8.76904 44.3951H8.08789L9.28418 46.6412V47.9498H9.90186V46.6412L11.0981 44.3951H10.4194L9.59424 46.0918ZM12.6362 44.3951H12.7827L14.1255 47.9498H13.481L13.1933 47.1172H11.8172L11.5303 47.9498H10.8882L12.2261 44.3951H12.3701H12.6362ZM11.9847 46.6314H13.0255L12.5045 45.1234L11.9847 46.6314ZM16.2804 46.0424C16.2537 46.0084 16.2279 45.9752 16.2031 45.9429C16.112 45.8225 16.0412 45.7061 15.9907 45.5938C15.9403 45.4799 15.915 45.3627 15.915 45.2422C15.915 45.0567 15.9533 44.8972 16.0298 44.7637C16.1063 44.6303 16.2145 44.5277 16.3545 44.4561C16.4945 44.3829 16.658 44.3462 16.8452 44.3462C17.0259 44.3462 17.1813 44.3829 17.3115 44.4561C17.4434 44.5277 17.5443 44.6229 17.6143 44.7417C17.6859 44.8606 17.7217 44.9908 17.7217 45.1324C17.7217 45.2447 17.7013 45.3472 17.6606 45.44C17.62 45.5328 17.5638 45.6174 17.4922 45.6939C17.4206 45.7704 17.3376 45.8428 17.2432 45.9112L16.9963 46.0909L17.7002 46.9216C17.7234 46.876 17.7444 46.8281 17.7632 46.7779C17.8234 46.6216 17.8535 46.4483 17.8535 46.2579H18.3613C18.3613 46.4304 18.3442 46.594 18.3101 46.7486C18.2775 46.9032 18.2246 47.0464 18.1514 47.1783C18.1217 47.2329 18.0881 47.2852 18.0505 47.3351L18.5713 47.9498H17.8901L17.6835 47.7068C17.5717 47.7916 17.4501 47.858 17.3188 47.9058C17.1463 47.9677 16.9624 47.9986 16.7671 47.9986C16.5311 47.9986 16.3268 47.9554 16.1543 47.8692C15.9818 47.7829 15.8483 47.6641 15.7539 47.5127C15.6611 47.3614 15.6147 47.188 15.6147 46.9927C15.6147 46.8479 15.6449 46.7209 15.7051 46.6119C15.7653 46.5012 15.8475 46.3986 15.9517 46.3042C16.0478 46.217 16.1574 46.1297 16.2804 46.0424ZM16.5721 46.3996L16.4985 46.4532C16.4123 46.5232 16.348 46.5907 16.3057 46.6558C16.265 46.7193 16.2381 46.7779 16.2251 46.8316C16.2121 46.8853 16.2056 46.9325 16.2056 46.9732C16.2056 47.0774 16.2275 47.1718 16.2715 47.2564C16.3171 47.341 16.383 47.4086 16.4692 47.459C16.5571 47.5079 16.6637 47.5323 16.7891 47.5323C16.9242 47.5323 17.0552 47.5022 17.1821 47.4419C17.2457 47.4109 17.3061 47.3736 17.3632 47.33L16.5721 46.3996ZM16.7127 45.7503L16.9307 45.6036C17.0332 45.5352 17.1064 45.4685 17.1504 45.4034C17.1943 45.3366 17.2163 45.2536 17.2163 45.1543C17.2163 45.0697 17.1838 44.9916 17.1187 44.92C17.0535 44.8484 16.9616 44.8125 16.8428 44.8125C16.7598 44.8125 16.6898 44.8321 16.6328 44.8711C16.5758 44.9086 16.5327 44.959 16.5034 45.0225C16.4757 45.0844 16.4619 45.1535 16.4619 45.23C16.4619 45.3033 16.4806 45.379 16.5181 45.4571C16.5555 45.5336 16.6068 45.6141 16.6719 45.6988C16.6851 45.7157 16.6987 45.7329 16.7127 45.7503ZM22.9316 46.7925H22.3213C22.3034 46.9471 22.266 47.0782 22.209 47.1856C22.1536 47.2914 22.0715 47.372 21.9624 47.4273C21.855 47.4826 21.7142 47.5103 21.54 47.5103C21.3968 47.5103 21.2739 47.4818 21.1714 47.4249C21.0688 47.3679 20.9842 47.2873 20.9175 47.1832C20.8524 47.079 20.8035 46.9545 20.771 46.8096C20.7401 46.6631 20.7246 46.5004 20.7246 46.3213V46.021C20.7246 45.8322 20.7417 45.6646 20.7759 45.5181C20.8117 45.37 20.8646 45.2455 20.9346 45.1446C21.0046 45.0437 21.0916 44.9672 21.1958 44.9151C21.3 44.863 21.422 44.837 21.562 44.837C21.7329 44.837 21.8713 44.8663 21.9771 44.9249C22.0828 44.9818 22.1626 45.0648 22.2163 45.1739C22.2716 45.2829 22.3075 45.4139 22.3237 45.5669H22.9341C22.9097 45.3293 22.8429 45.1185 22.7339 44.9346C22.6265 44.7507 22.4751 44.6067 22.2798 44.5025C22.0845 44.3983 21.8452 44.3462 21.562 44.3462C21.339 44.3462 21.138 44.3853 20.959 44.4634C20.7816 44.5415 20.6294 44.6547 20.5024 44.8028C20.3755 44.9493 20.2778 45.1259 20.2095 45.3326C20.1427 45.5393 20.1094 45.7704 20.1094 46.0259V46.3213C20.1094 46.5769 20.1419 46.808 20.207 47.0147C20.2738 47.2214 20.3698 47.398 20.4951 47.5445C20.6204 47.6893 20.771 47.8016 20.9468 47.8814C21.1226 47.9595 21.3203 47.9986 21.54 47.9986C21.8265 47.9986 22.0698 47.9465 22.27 47.8423C22.4702 47.7382 22.6257 47.5957 22.7363 47.4151C22.847 47.2328 22.9121 47.0253 22.9316 46.7925ZM26.3228 46.2701V46.0748C26.3228 45.8062 26.2869 45.5661 26.2153 45.3545C26.1453 45.1413 26.0452 44.9598 25.915 44.8101C25.7848 44.6587 25.6294 44.544 25.4487 44.4659C25.2681 44.3861 25.0679 44.3462 24.8481 44.3462C24.63 44.3462 24.4307 44.3861 24.25 44.4659C24.071 44.544 23.9155 44.6587 23.7837 44.8101C23.6535 44.9598 23.5526 45.1413 23.481 45.3545C23.4093 45.5661 23.3735 45.8062 23.3735 46.0748V46.2701C23.3735 46.5386 23.4093 46.7795 23.481 46.9927C23.5542 47.2059 23.6567 47.3874 23.7886 47.5372C23.9204 47.6869 24.0758 47.8016 24.2549 47.8814C24.4355 47.9595 24.6349 47.9986 24.853 47.9986C25.0728 47.9986 25.2729 47.9595 25.4536 47.8814C25.6343 47.8016 25.7889 47.6869 25.9175 47.5372C26.0477 47.3874 26.1478 47.2059 26.2178 46.9927C26.2878 46.7795 26.3228 46.5386 26.3228 46.2701ZM25.71 46.0699V46.2701C25.71 46.4686 25.6904 46.6444 25.6514 46.7974C25.6139 46.9504 25.5586 47.0798 25.4854 47.1856C25.4121 47.2898 25.3226 47.3687 25.2168 47.4224C25.111 47.4745 24.9897 47.5005 24.853 47.5005C24.7179 47.5005 24.5975 47.4745 24.4917 47.4224C24.3859 47.3687 24.2948 47.2898 24.2183 47.1856C24.1434 47.0798 24.0864 46.9504 24.0474 46.7974C24.0083 46.6444 23.9888 46.4686 23.9888 46.2701V46.0699C23.9888 45.8713 24.0083 45.6963 24.0474 45.545C24.0864 45.392 24.1426 45.2642 24.2158 45.1617C24.2907 45.0575 24.381 44.9794 24.4868 44.9273C24.5926 44.8736 24.7131 44.8467 24.8481 44.8467C24.9832 44.8467 25.1045 44.8736 25.2119 44.9273C25.3193 44.9794 25.4097 45.0575 25.4829 45.1617C25.5578 45.2642 25.6139 45.392 25.6514 45.545C25.6904 45.6963 25.71 45.8713 25.71 46.0699Z" fill="#8E8F99"/>
</svg>
