<svg aria-hidden="true" style="position: absolute; width: 0; height: 0; overflow: hidden;" version="1.1" xmlns="http://www.w3.org/2000/svg" xmlns:xlink="http://www.w3.org/1999/xlink">
<defs>
<symbol id="icon-circle-chevron-up-solid" viewBox="0 0 32 32">
<path d="M16 32c8.837 0 16-7.163 16-16s-7.163-16-16-16v0c-8.837 0-16 7.163-16 16s7.163 16 16 16v0zM23.563 16.938c0.587 0.587 0.587 1.538 0 2.119s-1.538 0.587-2.119 0l-5.438-5.438-5.438 5.438c-0.588 0.587-1.537 0.587-2.119 0s-0.588-1.538 0-2.119l6.487-6.5c0.588-0.588 1.538-0.588 2.119 0l6.506 6.5z"></path>
</symbol>
</defs>
</svg>
